<svg xmlns="http://www.w3.org/2000/svg" viewBox="0 0 1120 1120" width="1120" height="1120">
<rect x="0" y="0" width="1120" height="1120" fill="#ffffff"/>
<defs>
<marker id="a-2563eb" markerWidth="10" markerHeight="7" refX="9" refY="3.5" orient="auto"><path d="M0,0 L10,3.5 L0,7 z" fill="#2563eb"/></marker>
<marker id="a-0d9488" markerWidth="10" markerHeight="7" refX="9" refY="3.5" orient="auto"><path d="M0,0 L10,3.5 L0,7 z" fill="#0d9488"/></marker>
<marker id="a-7c3aed" markerWidth="10" markerHeight="7" refX="9" refY="3.5" orient="auto"><path d="M0,0 L10,3.5 L0,7 z" fill="#7c3aed"/></marker>
<marker id="a-059669" markerWidth="10" markerHeight="7" refX="9" refY="3.5" orient="auto"><path d="M0,0 L10,3.5 L0,7 z" fill="#059669"/></marker>
<marker id="a-dc2626" markerWidth="10" markerHeight="7" refX="9" refY="3.5" orient="auto"><path d="M0,0 L10,3.5 L0,7 z" fill="#dc2626"/></marker>
<marker id="a-6b7280" markerWidth="10" markerHeight="7" refX="9" refY="3.5" orient="auto"><path d="M0,0 L10,3.5 L0,7 z" fill="#6b7280"/></marker>
<style>text{font-family:-apple-system,BlinkMacSystemFont,"Segoe UI",Roboto,sans-serif;}</style>
</defs>
<text x="560.0" y="38" font-size="20" text-anchor="middle" font-weight="700" fill="#0f172a">Review Atlas — AI / Insights Pipeline</text>
<text x="560.0" y="60" font-size="12" text-anchor="middle" font-weight="400" fill="#64748b">LangGraph state graph · multi-model routing · local fallback · distillation</text>
<rect x="60" y="110" width="150" height="56" rx="10" fill="#f0fdfa" stroke="#0d9488" stroke-width="1.5"/>
<text x="135.0" y="135.0" font-size="13" text-anchor="middle" font-weight="600" fill="#0f172a">Reviews (EN)</text>
<text x="135.0" y="152.0" font-size="11" text-anchor="middle" font-weight="400" fill="#64748b">translated + cleaned</text>
<path d="M320,104 L390,138 L320,172 L250,138 z" fill="#fff7ed" stroke="#dc2626" stroke-width="1.5"/>
<text x="320" y="134" font-size="12" text-anchor="middle" font-weight="600" fill="#0f172a">LLM key?</text>
<text x="320" y="151" font-size="10" text-anchor="middle" font-weight="400" fill="#64748b">route</text>
<line x1="210" y1="138" x2="250" y2="138" stroke="#0d9488" stroke-width="1.8" marker-end="url(#a-0d9488)"/>
<rect x="420" y="86" width="640" height="150" rx="14" fill="#f5f3ff" stroke="#7c3aed" stroke-width="1.2" stroke-dasharray="6,4"/>
<text x="440" y="106" font-size="11" text-anchor="start" font-weight="700" fill="#7c3aed">LLM PATH (cheap top-ranked models, multi-vendor)</text>
<rect x="440" y="120" width="170" height="70" rx="10" fill="#ffffff" stroke="#7c3aed" stroke-width="1.5"/>
<text x="525.0" y="152.0" font-size="13" text-anchor="middle" font-weight="600" fill="#0f172a">classify</text>
<text x="525.0" y="169.0" font-size="11" text-anchor="middle" font-weight="400" fill="#64748b">sentiment + emotion · Tencent Hy3</text>
<rect x="630" y="120" width="170" height="70" rx="10" fill="#ffffff" stroke="#7c3aed" stroke-width="1.5"/>
<text x="715.0" y="152.0" font-size="13" text-anchor="middle" font-weight="600" fill="#0f172a">synthesize</text>
<text x="715.0" y="169.0" font-size="11" text-anchor="middle" font-weight="400" fill="#64748b">themes + actions + taxonomy · DeepSeek V4</text>
<rect x="820" y="120" width="170" height="70" rx="10" fill="#ffffff" stroke="#059669" stroke-width="1.5"/>
<text x="905.0" y="152.0" font-size="13" text-anchor="middle" font-weight="600" fill="#0f172a">critic</text>
<text x="905.0" y="169.0" font-size="11" text-anchor="middle" font-weight="400" fill="#64748b">grounding check (deterministic)</text>
<line x1="610" y1="155" x2="630" y2="155" stroke="#7c3aed" stroke-width="1.8" marker-end="url(#a-7c3aed)"/>
<line x1="800" y1="155" x2="820" y2="155" stroke="#7c3aed" stroke-width="1.8" marker-end="url(#a-7c3aed)"/>
<path d="M905,190 C905,225 715,225 715,192" fill="none" stroke="#dc2626" stroke-width="1.6" stroke-dasharray="5,3" marker-end="url(#a-dc2626)"/>
<text x="810" y="222" font-size="10" text-anchor="middle" font-weight="500" fill="#dc2626">retry if themes dropped</text>
<line x1="390" y1="120" x2="440" y2="120" stroke="#dc2626" stroke-width="1.8" marker-end="url(#a-dc2626)"/>
<text x="415.0" y="114.0" font-size="10" text-anchor="middle" font-weight="500" fill="#dc2626">yes</text>
<rect x="420" y="260" width="640" height="70" rx="14" fill="#ecfeff" stroke="#0d9488" stroke-width="1.2" stroke-dasharray="6,4"/>
<text x="440" y="280" font-size="11" text-anchor="start" font-weight="700" fill="#0d9488">LOCAL FALLBACK (fully offline)</text>
<rect x="440" y="292" width="150" height="26" rx="13" fill="#f8fafc" stroke="#0d9488" stroke-width="1"/>
<text x="515.0" y="309" font-size="11" text-anchor="middle" font-weight="500" fill="#0f172a">VADER sentiment</text>
<rect x="602" y="292" width="150" height="26" rx="13" fill="#f8fafc" stroke="#0d9488" stroke-width="1"/>
<text x="677.0" y="309" font-size="11" text-anchor="middle" font-weight="500" fill="#0f172a">YAKE themes</text>
<rect x="764" y="292" width="200" height="26" rx="13" fill="#f8fafc" stroke="#0d9488" stroke-width="1"/>
<text x="864.0" y="309" font-size="11" text-anchor="middle" font-weight="500" fill="#0f172a">rule-based recommendations</text>
<line x1="360" y1="168" x2="440" y2="290" stroke="#0d9488" stroke-width="1.8" stroke-dasharray="5,4" marker-end="url(#a-0d9488)"/>
<text x="400.0" y="223.0" font-size="10" text-anchor="middle" font-weight="500" fill="#0d9488">no</text>
<rect x="440" y="360" width="200" height="48" rx="10" fill="#f8fafc" stroke="#6b7280" stroke-width="1.5"/>
<text x="540.0" y="381.0" font-size="13" text-anchor="middle" font-weight="600" fill="#0f172a">Langfuse</text>
<text x="540.0" y="398.0" font-size="11" text-anchor="middle" font-weight="400" fill="#64748b">traces every LLM call</text>
<path d="M540,236 L540,360" stroke="#6b7280" stroke-width="1.4" stroke-dasharray="4,3"/>
<rect x="700" y="356" width="160" height="56" rx="10" fill="#ffffff" stroke="#7c3aed" stroke-width="1.5"/>
<text x="780.0" y="381.0" font-size="13" text-anchor="middle" font-weight="600" fill="#0f172a">Insights</text>
<text x="780.0" y="398.0" font-size="11" text-anchor="middle" font-weight="400" fill="#64748b">assembled result</text>
<line x1="990" y1="190" x2="780" y2="356" stroke="#7c3aed" stroke-width="1.8" marker-end="url(#a-7c3aed)"/>
<text x="885.0" y="267.0" font-size="10" text-anchor="middle" font-weight="500" fill="#7c3aed">assemble</text>
<line x1="620" y1="330" x2="700" y2="372" stroke="#0d9488" stroke-width="1.8" stroke-dasharray="5,4" marker-end="url(#a-0d9488)"/>
<rect x="900" y="348" width="180" height="132" rx="10" fill="#ffffff" stroke="#7c3aed" stroke-width="1.2"/>
<text x="990" y="366" font-size="12" text-anchor="middle" font-weight="700" fill="#7c3aed">Outputs</text>
<rect x="915" y="378" width="150" height="26" rx="13" fill="#f8fafc" stroke="#7c3aed" stroke-width="1"/>
<text x="990.0" y="395" font-size="11" text-anchor="middle" font-weight="500" fill="#0f172a">sentiment</text>
<rect x="915" y="394" width="150" height="26" rx="13" fill="#f8fafc" stroke="#7c3aed" stroke-width="1"/>
<text x="990.0" y="411" font-size="11" text-anchor="middle" font-weight="500" fill="#0f172a">emotion</text>
<rect x="915" y="410" width="150" height="26" rx="13" fill="#f8fafc" stroke="#7c3aed" stroke-width="1"/>
<text x="990.0" y="427" font-size="11" text-anchor="middle" font-weight="500" fill="#0f172a">taxonomy</text>
<rect x="915" y="426" width="150" height="26" rx="13" fill="#f8fafc" stroke="#7c3aed" stroke-width="1"/>
<text x="990.0" y="443" font-size="11" text-anchor="middle" font-weight="500" fill="#0f172a">mismatch</text>
<rect x="915" y="442" width="150" height="26" rx="13" fill="#f8fafc" stroke="#7c3aed" stroke-width="1"/>
<text x="990.0" y="459" font-size="11" text-anchor="middle" font-weight="500" fill="#0f172a">themes</text>
<rect x="915" y="458" width="150" height="26" rx="13" fill="#f8fafc" stroke="#7c3aed" stroke-width="1"/>
<text x="990.0" y="475" font-size="11" text-anchor="middle" font-weight="500" fill="#0f172a">actionable</text>
<line x1="860" y1="384" x2="900" y2="400" stroke="#7c3aed" stroke-width="1.8" marker-end="url(#a-7c3aed)"/>
<rect x="60" y="470" width="1000" height="170" rx="14" fill="#fffbeb" stroke="#d97706" stroke-width="1.2" stroke-dasharray="6,4"/>
<text x="80" y="492" font-size="11" text-anchor="start" font-weight="700" fill="#d97706">DEV-TIME PROMPT DISTILLATION (offline — not in the runtime path)</text>
<rect x="80" y="510" width="190" height="70" rx="10" fill="#ffffff" stroke="#dc2626" stroke-width="1.5"/>
<text x="175.0" y="542.0" font-size="13" text-anchor="middle" font-weight="600" fill="#0f172a">Teacher gpt-5.5</text>
<text x="175.0" y="559.0" font-size="11" text-anchor="middle" font-weight="400" fill="#64748b">labels 100 reviews → gold</text>
<rect x="330" y="510" width="200" height="70" rx="10" fill="#ffffff" stroke="#d97706" stroke-width="1.5"/>
<text x="430.0" y="542.0" font-size="13" text-anchor="middle" font-weight="600" fill="#0f172a">Build few-shots</text>
<text x="430.0" y="559.0" font-size="11" text-anchor="middle" font-weight="400" fill="#64748b">from student mistakes</text>
<rect x="590" y="510" width="200" height="70" rx="10" fill="#ffffff" stroke="#7c3aed" stroke-width="1.5"/>
<text x="690.0" y="542.0" font-size="13" text-anchor="middle" font-weight="600" fill="#0f172a">Student Tencent</text>
<text x="690.0" y="559.0" font-size="11" text-anchor="middle" font-weight="400" fill="#64748b">classify before / after</text>
<rect x="850" y="510" width="190" height="70" rx="10" fill="#ecfdf5" stroke="#059669" stroke-width="1.5"/>
<text x="945.0" y="542.0" font-size="13" text-anchor="middle" font-weight="600" fill="#0f172a">Agreement</text>
<text x="945.0" y="559.0" font-size="11" text-anchor="middle" font-weight="400" fill="#64748b">95% → 97%</text>
<line x1="270" y1="545" x2="330" y2="545" stroke="#d97706" stroke-width="1.8" marker-end="url(#a-d97706)"/>
<line x1="530" y1="545" x2="590" y2="545" stroke="#d97706" stroke-width="1.8" marker-end="url(#a-d97706)"/>
<line x1="790" y1="545" x2="850" y2="545" stroke="#059669" stroke-width="1.8" marker-end="url(#a-059669)"/>
<text x="560" y="615" font-size="11" text-anchor="middle" font-weight="500" fill="#d97706">few-shots injected into the runtime classify prompt</text>
<rect x="60" y="656" width="360" height="34" rx="8" fill="#ffffff" stroke="#6b7280" stroke-width="1"/>
<line x1="72" y1="673" x2="100" y2="673" stroke="#7c3aed" stroke-width="2" marker-end="url(#a-7c3aed)"/>
<text x="108" y="677" font-size="10" text-anchor="start" font-weight="400" fill="#0f172a">LLM flow</text>
<line x1="196" y1="673" x2="224" y2="673" stroke="#0d9488" stroke-width="2" stroke-dasharray="5,4" marker-end="url(#a-0d9488)"/>
<text x="232" y="677" font-size="10" text-anchor="start" font-weight="400" fill="#0f172a">fallback</text>
<line x1="300" y1="673" x2="328" y2="673" stroke="#dc2626" stroke-width="2" stroke-dasharray="5,3" marker-end="url(#a-dc2626)"/>
<text x="336" y="677" font-size="10" text-anchor="start" font-weight="400" fill="#0f172a">retry loop</text>
</svg>