<svg xmlns="http://www.w3.org/2000/svg" viewBox="0 0 1120 1120" width="1120" height="1120">
<rect x="0" y="0" width="1120" height="1120" fill="#ffffff"/>
<defs>
<marker id="a-2563eb" markerWidth="10" markerHeight="7" refX="9" refY="3.5" orient="auto"><path d="M0,0 L10,3.5 L0,7 z" fill="#2563eb"/></marker>
<marker id="a-4f46e5" markerWidth="10" markerHeight="7" refX="9" refY="3.5" orient="auto"><path d="M0,0 L10,3.5 L0,7 z" fill="#4f46e5"/></marker>
<marker id="a-0d9488" markerWidth="10" markerHeight="7" refX="9" refY="3.5" orient="auto"><path d="M0,0 L10,3.5 L0,7 z" fill="#0d9488"/></marker>
<marker id="a-d97706" markerWidth="10" markerHeight="7" refX="9" refY="3.5" orient="auto"><path d="M0,0 L10,3.5 L0,7 z" fill="#d97706"/></marker>
<marker id="a-6b7280" markerWidth="10" markerHeight="7" refX="9" refY="3.5" orient="auto"><path d="M0,0 L10,3.5 L0,7 z" fill="#6b7280"/></marker>
<marker id="a-7c3aed" markerWidth="10" markerHeight="7" refX="9" refY="3.5" orient="auto"><path d="M0,0 L10,3.5 L0,7 z" fill="#7c3aed"/></marker>
<style>text{font-family:-apple-system,BlinkMacSystemFont,"Segoe UI",Roboto,sans-serif;}</style>
</defs>
<text x="560.0" y="38" font-size="20" text-anchor="middle" font-weight="700" fill="#0f172a">Review Atlas — System Architecture</text>
<text x="560.0" y="60" font-size="12" text-anchor="middle" font-weight="400" fill="#64748b">Apple Store review collection → analysis → API + web app</text>
<rect x="40" y="80" width="1040" height="78" rx="14" fill="#eff6ff" stroke="#2563eb" stroke-width="1.2" stroke-dasharray="6,4"/>
<text x="60" y="100" font-size="11" text-anchor="start" font-weight="700" fill="#2563eb">CLIENT</text>
<rect x="60" y="108" width="200" height="42" rx="10" fill="#ffffff" stroke="#2563eb" stroke-width="1.5"/>
<text x="160.0" y="126.0" font-size="13" text-anchor="middle" font-weight="600" fill="#0f172a">React + Vite + Tailwind</text>
<text x="160.0" y="143.0" font-size="11" text-anchor="middle" font-weight="400" fill="#64748b">Dala design system</text>
<rect x="290" y="116" width="96" height="26" rx="13" fill="#f8fafc" stroke="#2563eb" stroke-width="1"/>
<text x="338.0" y="133" font-size="11" text-anchor="middle" font-weight="500" fill="#0f172a">Home</text>
<rect x="398" y="116" width="96" height="26" rx="13" fill="#f8fafc" stroke="#2563eb" stroke-width="1"/>
<text x="446.0" y="133" font-size="11" text-anchor="middle" font-weight="500" fill="#0f172a">Dashboard</text>
<rect x="506" y="116" width="96" height="26" rx="13" fill="#f8fafc" stroke="#2563eb" stroke-width="1"/>
<text x="554.0" y="133" font-size="11" text-anchor="middle" font-weight="500" fill="#0f172a">Explorer</text>
<rect x="614" y="116" width="96" height="26" rx="13" fill="#f8fafc" stroke="#2563eb" stroke-width="1"/>
<text x="662.0" y="133" font-size="11" text-anchor="middle" font-weight="500" fill="#0f172a">Compare</text>
<rect x="722" y="116" width="96" height="26" rx="13" fill="#f8fafc" stroke="#2563eb" stroke-width="1"/>
<text x="770.0" y="133" font-size="11" text-anchor="middle" font-weight="500" fill="#0f172a">About</text>
<rect x="830" y="116" width="96" height="26" rx="13" fill="#f8fafc" stroke="#2563eb" stroke-width="1"/>
<text x="878.0" y="133" font-size="11" text-anchor="middle" font-weight="500" fill="#0f172a">API Docs</text>
<rect x="938" y="116" width="96" height="26" rx="13" fill="#f8fafc" stroke="#2563eb" stroke-width="1"/>
<text x="986.0" y="133" font-size="11" text-anchor="middle" font-weight="500" fill="#0f172a">Pricing</text>
<rect x="40" y="188" width="1040" height="86" rx="14" fill="#eef2ff" stroke="#4f46e5" stroke-width="1.2" stroke-dasharray="6,4"/>
<text x="60" y="208" font-size="11" text-anchor="start" font-weight="700" fill="#4f46e5">REST API — FastAPI (Swagger /docs)</text>
<rect x="60" y="224" width="150" height="26" rx="13" fill="#f8fafc" stroke="#4f46e5" stroke-width="1"/>
<text x="135.0" y="241" font-size="11" text-anchor="middle" font-weight="500" fill="#0f172a">POST /collect</text>
<rect x="222" y="224" width="150" height="26" rx="13" fill="#f8fafc" stroke="#4f46e5" stroke-width="1"/>
<text x="297.0" y="241" font-size="11" text-anchor="middle" font-weight="500" fill="#0f172a">GET /metrics</text>
<rect x="384" y="224" width="150" height="26" rx="13" fill="#f8fafc" stroke="#4f46e5" stroke-width="1"/>
<text x="459.0" y="241" font-size="11" text-anchor="middle" font-weight="500" fill="#0f172a">GET /insights</text>
<rect x="546" y="224" width="150" height="26" rx="13" fill="#f8fafc" stroke="#4f46e5" stroke-width="1"/>
<text x="621.0" y="241" font-size="11" text-anchor="middle" font-weight="500" fill="#0f172a">GET /analyze</text>
<rect x="708" y="224" width="150" height="26" rx="13" fill="#f8fafc" stroke="#4f46e5" stroke-width="1"/>
<text x="783.0" y="241" font-size="11" text-anchor="middle" font-weight="500" fill="#0f172a">GET /reviews/download</text>
<rect x="870" y="224" width="150" height="26" rx="13" fill="#f8fafc" stroke="#4f46e5" stroke-width="1"/>
<text x="945.0" y="241" font-size="11" text-anchor="middle" font-weight="500" fill="#0f172a">GET /health</text>
<rect x="60" y="256" width="0" height="0" rx="10" fill="#ffffff" stroke="#4f46e5" stroke-width="1.5"/>
<text x="60.0" y="260.0" font-size="13" text-anchor="middle" font-weight="600" fill="#0f172a"></text>
<rect x="40" y="304" width="1040" height="132" rx="14" fill="#f0fdfa" stroke="#0d9488" stroke-width="1.2" stroke-dasharray="6,4"/>
<text x="60" y="324" font-size="11" text-anchor="start" font-weight="700" fill="#0d9488">SERVICE — pipeline orchestration (heavy work off the event loop)</text>
<rect x="60" y="344" width="184" height="64" rx="10" fill="#ffffff" stroke="#0d9488" stroke-width="1.5"/>
<text x="152.0" y="373.0" font-size="13" text-anchor="middle" font-weight="600" fill="#0f172a">Collector</text>
<text x="152.0" y="390.0" font-size="11" text-anchor="middle" font-weight="400" fill="#64748b">Apple RSS · regional · cache</text>
<line x1="244" y1="376" x2="262" y2="376" stroke="#0d9488" stroke-width="1.8" marker-end="url(#a-0d9488)"/>
<rect x="262" y="344" width="184" height="64" rx="10" fill="#ffffff" stroke="#0d9488" stroke-width="1.5"/>
<text x="354.0" y="373.0" font-size="13" text-anchor="middle" font-weight="600" fill="#0f172a">Translation</text>
<text x="354.0" y="390.0" font-size="11" text-anchor="middle" font-weight="400" fill="#64748b">multilingual → EN</text>
<line x1="446" y1="376" x2="464" y2="376" stroke="#0d9488" stroke-width="1.8" marker-end="url(#a-0d9488)"/>
<rect x="464" y="344" width="184" height="64" rx="10" fill="#ffffff" stroke="#0d9488" stroke-width="1.5"/>
<text x="556.0" y="373.0" font-size="13" text-anchor="middle" font-weight="600" fill="#0f172a">Processing</text>
<text x="556.0" y="390.0" font-size="11" text-anchor="middle" font-weight="400" fill="#64748b">clean / normalize</text>
<line x1="648" y1="376" x2="666" y2="376" stroke="#0d9488" stroke-width="1.8" marker-end="url(#a-0d9488)"/>
<rect x="666" y="344" width="184" height="64" rx="10" fill="#ffffff" stroke="#0d9488" stroke-width="1.5"/>
<text x="758.0" y="373.0" font-size="13" text-anchor="middle" font-weight="600" fill="#0f172a">Metrics</text>
<text x="758.0" y="390.0" font-size="11" text-anchor="middle" font-weight="400" fill="#64748b">rating + sentiment-derived</text>
<line x1="850" y1="376" x2="868" y2="376" stroke="#0d9488" stroke-width="1.8" marker-end="url(#a-0d9488)"/>
<rect x="868" y="344" width="184" height="64" rx="10" fill="#ffffff" stroke="#0d9488" stroke-width="1.5"/>
<text x="960.0" y="373.0" font-size="13" text-anchor="middle" font-weight="600" fill="#0f172a">Insights</text>
<text x="960.0" y="390.0" font-size="11" text-anchor="middle" font-weight="400" fill="#64748b">LangGraph graph</text>
<rect x="60" y="470" width="300" height="70" rx="10" fill="#fffbeb" stroke="#d97706" stroke-width="1.5"/>
<text x="210.0" y="502.0" font-size="13" text-anchor="middle" font-weight="600" fill="#0f172a">Storage — JSON file cache</text>
<text x="210.0" y="519.0" font-size="11" text-anchor="middle" font-weight="400" fill="#64748b">collection state + full analysis · no DB</text>
<rect x="390" y="458" width="690" height="96" rx="14" fill="#f8fafc" stroke="#6b7280" stroke-width="1.2" stroke-dasharray="6,4"/>
<text x="410" y="478" font-size="11" text-anchor="start" font-weight="700" fill="#6b7280">EXTERNAL SERVICES</text>
<rect x="410" y="488" width="156" height="52" rx="10" fill="#ffffff" stroke="#6b7280" stroke-width="1.5"/>
<text x="488.0" y="511.0" font-size="13" text-anchor="middle" font-weight="600" fill="#0f172a">Apple App Store RSS</text>
<text x="488.0" y="528.0" font-size="11" text-anchor="middle" font-weight="400" fill="#64748b">no key</text>
<rect x="578" y="488" width="156" height="52" rx="10" fill="#ffffff" stroke="#7c3aed" stroke-width="1.5"/>
<text x="656.0" y="511.0" font-size="13" text-anchor="middle" font-weight="600" fill="#0f172a">OpenRouter</text>
<text x="656.0" y="528.0" font-size="11" text-anchor="middle" font-weight="400" fill="#64748b">multi-model LLMs</text>
<rect x="746" y="488" width="156" height="52" rx="10" fill="#ffffff" stroke="#7c3aed" stroke-width="1.5"/>
<text x="824.0" y="511.0" font-size="13" text-anchor="middle" font-weight="600" fill="#0f172a">Langfuse</text>
<text x="824.0" y="528.0" font-size="11" text-anchor="middle" font-weight="400" fill="#64748b">LLM tracing</text>
<rect x="914" y="488" width="156" height="52" rx="10" fill="#ffffff" stroke="#6b7280" stroke-width="1.5"/>
<text x="992.0" y="511.0" font-size="13" text-anchor="middle" font-weight="600" fill="#0f172a">Google Translate</text>
<text x="992.0" y="528.0" font-size="11" text-anchor="middle" font-weight="400" fill="#64748b">free</text>
<rect x="40" y="584" width="1040" height="70" rx="14" fill="#f5f3ff" stroke="#7c3aed" stroke-width="1.2" stroke-dasharray="6,4"/>
<text x="60" y="606" font-size="11" text-anchor="start" font-weight="700" fill="#7c3aed">DEPLOYMENT</text>
<rect x="60" y="616" width="220" height="26" rx="13" fill="#f8fafc" stroke="#7c3aed" stroke-width="1"/>
<text x="170.0" y="633" font-size="11" text-anchor="middle" font-weight="500" fill="#0f172a">Docker Compose: api + frontend</text>
<rect x="292" y="616" width="150" height="26" rx="13" fill="#f8fafc" stroke="#7c3aed" stroke-width="1"/>
<text x="367.0" y="633" font-size="11" text-anchor="middle" font-weight="500" fill="#0f172a">nginx + certbot</text>
<rect x="454" y="616" width="150" height="26" rx="13" fill="#f8fafc" stroke="#7c3aed" stroke-width="1"/>
<text x="529.0" y="633" font-size="11" text-anchor="middle" font-weight="500" fill="#0f172a">personal VPS</text>
<line x1="160" y1="158" x2="160" y2="188" stroke="#2563eb" stroke-width="1.8" marker-end="url(#a-2563eb)"/>
<text x="160.0" y="167.0" font-size="10" text-anchor="middle" font-weight="500" fill="#2563eb">requests</text>
<line x1="160" y1="274" x2="160" y2="304" stroke="#4f46e5" stroke-width="1.8" marker-end="url(#a-4f46e5)"/>
<text x="160.0" y="283.0" font-size="10" text-anchor="middle" font-weight="500" fill="#4f46e5">service</text>
<line x1="152" y1="408" x2="130" y2="470" stroke="#0d9488" stroke-width="1.8" marker-end="url(#a-0d9488)"/>
<line x1="152" y1="344" x2="152" y2="320" stroke="#0d9488" stroke-width="0" marker-end="url(#a-0d9488)"/>
<line x1="152" y1="344" x2="488" y2="488" stroke="#6b7280" stroke-width="1.8" stroke-dasharray="5,4" marker-end="url(#a-6b7280)"/>
<text x="320.0" y="410.0" font-size="10" text-anchor="middle" font-weight="500" fill="#6b7280">Apple</text>
<line x1="620" y1="408" x2="620" y2="488" stroke="#7c3aed" stroke-width="1.8" stroke-dasharray="5,4" marker-end="url(#a-7c3aed)"/>
<text x="620.0" y="442.0" font-size="10" text-anchor="middle" font-weight="500" fill="#7c3aed">LLM + trace</text>
<line x1="390" y1="408" x2="350" y2="470" stroke="#d97706" stroke-width="1.8" stroke-dasharray="5,4" marker-end="url(#a-d97706)"/>
<text x="370.0" y="433.0" font-size="10" text-anchor="middle" font-weight="500" fill="#d97706">cache</text>
<rect x="840" y="680" width="240" height="60" rx="8" fill="#ffffff" stroke="#6b7280" stroke-width="1"/>
<text x="852" y="698" font-size="11" text-anchor="start" font-weight="700" fill="#0f172a">Legend</text>
<line x1="852" y1="714" x2="882" y2="714" stroke="#2563eb" stroke-width="2" marker-end="url(#a-2563eb)"/>
<text x="890" y="718" font-size="10" text-anchor="start" font-weight="400" fill="#0f172a">request / data flow</text>
<line x1="852" y1="730" x2="882" y2="730" stroke="#6b7280" stroke-width="2" stroke-dasharray="5,4" marker-end="url(#a-6b7280)"/>
<text x="890" y="734" font-size="10" text-anchor="start" font-weight="400" fill="#0f172a">external call</text>
</svg>